<?xml version="1.0" encoding="utf-8"?>
<!-- Generator: Adobe Illustrator 22.1.0, SVG Export Plug-In . SVG Version: 6.00 Build 0)  -->
<svg version="1.1" id="图层_1" xmlns="http://www.w3.org/2000/svg" xmlns:xlink="http://www.w3.org/1999/xlink" x="0px" y="0px"
	 viewBox="0 0 16 16" style="enable-background:new 0 0 16 16;" xml:space="preserve">
<path d="M14.1,3.8c0.5,0.5,0.7,1.1,0.9,1.7c0.1,0.7,0.1,1.3-0.1,1.9c0,0.1-0.1,0.2-0.3,0.3s-0.3,0.1-0.4,0c-0.1,0-0.2-0.1-0.3-0.3
	c-0.1-0.1-0.1-0.3,0-0.4C14,6.7,14,6.2,13.9,5.8c-0.1-0.5-0.3-0.9-0.6-1.2c-0.3-0.4-0.7-0.6-1.2-0.7c-0.4-0.1-0.9-0.2-1.4-0.1
	c-0.1,0-0.3,0-0.4-0.1s-0.2-0.2-0.2-0.3c0-0.1,0-0.3,0.1-0.4c0.1-0.1,0.2-0.2,0.3-0.2c0.6-0.1,1.3-0.1,1.9,0.1
	C13.1,2.9,13.6,3.3,14.1,3.8z M11.8,4.6c0.3,0.1,0.6,0.3,0.8,0.5c0.2,0.2,0.4,0.5,0.4,0.8c0.1,0.3,0,0.6-0.1,0.9
	C13,7,12.9,7,12.8,7.1c-0.1,0.1-0.2,0.1-0.3,0c-0.1,0-0.2-0.1-0.3-0.2c-0.1-0.1-0.1-0.2,0-0.3c0.1-0.3,0-0.6-0.2-0.9
	c-0.2-0.3-0.5-0.3-0.8-0.3c-0.1,0-0.2,0-0.4-0.1c-0.1-0.1-0.2-0.2-0.2-0.3c0-0.1,0-0.2,0.1-0.3c0.1-0.1,0.2-0.2,0.3-0.2
	C11.2,4.4,11.5,4.5,11.8,4.6z M13.2,10c0,0.4-0.1,0.7-0.3,1.1c-0.2,0.4-0.5,0.7-0.9,1.1c-0.4,0.3-0.8,0.6-1.3,0.9
	c-0.5,0.3-1.1,0.5-1.8,0.6c-0.7,0.2-1.4,0.2-2.1,0.2s-1.5-0.1-2.2-0.3c-0.7-0.2-1.3-0.4-1.9-0.7c-0.6-0.3-1-0.7-1.3-1.2
	S1,10.8,1,10.2C1,9.6,1.2,9,1.5,8.3c0.4-0.7,0.9-1.4,1.5-2C4,5.4,4.8,4.8,5.7,4.4c0.9-0.3,1.5-0.3,1.9,0.1C8,4.8,8.1,5.3,7.8,6.1
	c0,0.1,0,0.1,0,0.2c0,0,0,0,0.1,0.1c0,0,0.1,0,0.1,0c0,0,0.1,0,0.1,0l0,0C8.9,6,9.5,5.8,10.1,5.8c0.6,0,1,0.2,1.2,0.5
	c0.2,0.3,0.2,0.8,0,1.4c0,0.1,0,0.1,0,0.2c0,0,0,0.1,0,0.1c0,0,0.1,0,0.1,0.1c0,0,0.1,0,0.1,0c0.3,0.1,0.6,0.2,0.8,0.4
	C12.6,8.6,12.8,8.8,13,9C13.1,9.3,13.2,9.6,13.2,10z M10.8,9.9c0-0.5-0.3-0.9-0.7-1.3c-0.4-0.4-1-0.7-1.6-0.9
	C7.8,7.6,7.1,7.5,6.3,7.6C5.2,7.7,4.2,8.1,3.4,8.7c-0.8,0.6-1.1,1.3-1,2.1c0,0.5,0.3,0.9,0.7,1.3c0.4,0.4,1,0.7,1.6,0.9
	c0.7,0.2,1.4,0.2,2.1,0.2C8,13,9,12.6,9.8,12C10.5,11.4,10.9,10.7,10.8,9.9z M8.4,11.2c-0.2,0.5-0.6,0.9-1.2,1.2
	c-0.6,0.3-1.2,0.3-1.8,0.1c-0.6-0.2-0.9-0.5-1.2-1S4,10.5,4.3,10c0.2-0.5,0.6-0.8,1.2-1.1C6,8.7,6.6,8.6,7.1,8.7
	c0.6,0.2,1,0.5,1.2,0.9C8.6,10.2,8.6,10.7,8.4,11.2z M7,10.3c0-0.1,0.1-0.1,0-0.2C7,10.1,7,10,6.9,10c-0.1,0-0.1,0-0.2,0
	c-0.1,0-0.1,0.1-0.2,0.1c-0.1,0.2-0.1,0.3,0.1,0.4c0.1,0,0.1,0,0.2,0C6.9,10.5,7,10.4,7,10.3z M6.3,11.3c0.1-0.2,0.1-0.4,0.1-0.5
	c-0.1-0.2-0.2-0.3-0.4-0.4c-0.2-0.1-0.4-0.1-0.6,0c-0.2,0.1-0.4,0.2-0.5,0.4c-0.1,0.2-0.1,0.4-0.1,0.5c0,0.2,0.2,0.3,0.3,0.4
	c0.2,0.1,0.4,0.1,0.6,0C6,11.6,6.2,11.5,6.3,11.3z"/>
</svg>
