<?xml version="1.0" encoding="utf-8"?>
<!-- Generator: Adobe Illustrator 22.1.0, SVG Export Plug-In . SVG Version: 6.00 Build 0)  -->
<svg version="1.1" id="图层_1" xmlns="http://www.w3.org/2000/svg" xmlns:xlink="http://www.w3.org/1999/xlink" x="0px" y="0px"
	 viewBox="0 0 260 260" style="enable-background:new 0 0 260 260;" xml:space="preserve">
<path d="M166.6,110.1c-1.1-1.1-1.7-2.4-1.7-3.9c0-1.5,0.6-2.8,1.7-3.9c1.1-1.1,2.4-1.7,3.9-1.7c1.5,0,2.8,0.6,3.9,1.7
	c1.1,1.1,1.7,2.4,1.7,3.9c0,1.5-0.6,2.8-1.7,3.9c-1.1,1.1-2.4,1.7-3.9,1.7C169.1,111.7,167.8,111.2,166.6,110.1z M46.8,59.3
	c-5.4,2.3-10.1,5.5-14.2,9.6c-4.1,4.1-7.3,8.8-9.6,14.2c-2.3,5.5-3.5,11.3-3.5,17.5c0,16.8,4.5,25.7,13.5,26.7c9,1,15.7-0.4,20-4.3
	s8.8-3.1,13.5,2.2c4.7,5.3,3.9,12-2.3,20.2c-3.1,4.1-5.8,8.6-8,13.6c-2.2,5-3.2,9.9-3.2,14.7c0,6.9,1.3,12.8,4,17.7
	c2.7,4.9,6.5,8.9,11.4,12.1s10.8,5.5,17.7,7c6.9,1.4,14.5,2.1,22.9,2.1c5.6,0,12.2,0,19.9,0s15,0,22,0c7,0,12.9,0,17.8,0
	s7.3,0,7.3,0s-0.5-1.9-1.4-5.6c-0.9-3.7-4.2-5.6-9.8-5.6h-11.2c0,0,1.6-1.7,4.9-5.1c3.3-3.4,6-7.5,8.1-12.2
	c2.2-4.8,2.7-9.7,1.7-14.9c-1.2-5-6.1-9.2-14.7-12.6c11.2,0,18.2-1.9,21-5.6s7-5.6,12.6-5.6c5.6,0,8.4-1.9,8.4-5.6s-2.8-5.6-8.4-5.6
	c-5.6,0-10.7,1.7-15.4,5.2c-4.7,3.4-9.3,2.8-14-1.8c-1.2-1.2-1.8-3.3-2-6.3c-0.2-3,2.2-4.7,7.3-4.9c5.4,0.9,11,0.8,17-0.3
	c6-1.1,9.6-2.7,10.9-4.6c-0.2-14.5-3.8-24.1-10.6-28.8s-10.2-7.2-10.2-7.2l-1.6-6.5c0,0-0.7,0.1-2,0.3c-1.3,0.2-2.8,1.1-4.3,2.9
	c-0.5-1.3-1.1-2.2-2-2.9c-0.9-0.6-1.3-1-1.3-1s-1,0.5-2.9,1.6c-1.9,1-2.8,3-2.5,5.8c-3.5,0-7.7,1.3-12.8,4
	c-5.1,2.7-10.1,6.9-14.8,12.6c-4.7,5.7-8.8,13.1-12.1,22c-3.4,9-5.1,19.8-5.1,32.3c-2.8-17-3.5-29.9-2.1-38.6
	c1.4-8.7,2.1-18.5,2.1-29.4c0-4.5-1.2-8.8-3.5-12.8c-2.3-4-5.5-7.4-9.6-10.4c-4.1-3-8.8-5.3-14.2-6.9c-5.5-1.7-11.3-2.6-17.5-2.6
	S52.3,57,46.8,59.3z"/>
<path d="M213.7,135.8c-1.3,2.4-1.4,4.5-0.4,6.2c1,1.7,2,2.9,2.9,3.6c2.7,2.3,5,5,6.7,8c1.7,3.1,2.9,6.3,3.6,9.7s0.8,6.9,0.3,10.5
	c-0.5,3.6-1.6,7-3.4,10.3c-2,3.8-4.7,7-7.9,9.6c-3.2,2.6-6.8,4.5-10.6,5.6c-1.8,0.5-3.1,1.6-4,3.3c-0.9,1.6-1,3.3-0.5,5.1
	s1.6,3.1,3.3,4c1.6,0.9,3.3,1,5.1,0.5c2.8-0.8,5.4-1.9,7.9-3.3c2.5-1.4,4.9-2.9,7.2-4.8c2.2-1.8,4.3-3.9,6.3-6.2
	c1.9-2.3,3.6-4.8,5.1-7.5c2.4-4.4,3.9-9,4.7-13.7c0.7-4.7,0.8-9.4,0.1-14s-2.1-9-4.2-13.2s-4.8-8-8.1-11.5l6.2-11.6l-11.8-6.3
	L213.7,135.8z M187.3,185.1c4.4,2.3,8.9,2.8,13.6,1.4s8.3-4.3,10.6-8.7c2.3-4.4,2.8-8.9,1.4-13.6c-1.4-4.7-4.3-8.3-8.7-10.6
	c-4.4-2.3-8.9-2.8-13.6-1.4c-4.7,1.4-8.3,4.3-10.6,8.7c-2.3,4.4-2.8,8.9-1.4,13.6C180.1,179.2,182.9,182.7,187.3,185.1z"/>
</svg>
